<svg xmlns="http://www.w3.org/2000/svg" width="800" height="500" viewBox="0 0 800 500">
  <rect width="800" height="500" fill="#f4e8d5"/>
  <rect x="180" y="100" width="440" height="300" rx="24" fill="#2f3136"/>
  <rect x="245" y="135" width="310" height="230" rx="16" fill="#ffffff"/>
  <circle cx="400" cy="250" r="92" fill="#e46a3a"/>
  <path d="M330 210c18-38 64-58 110-50 24 5 41 16 54 35-25 8-46 18-65 33-16 11-31 22-42 34-19 19-32 33-41 50-10-10-18-23-25-40-15-35-13-56-7-62Z" fill="#2f3136"/>
  <text x="400" y="420" text-anchor="middle" font-family="Arial, Helvetica, sans-serif" font-size="42" font-weight="700" fill="#e46a3a">BAD GUITARIST</text>
</svg>
