<svg xmlns="http://www.w3.org/2000/svg" width="800" height="500" viewBox="0 0 800 500">
  <rect width="800" height="500" fill="#f4e8d5"/>
  <rect x="180" y="100" width="440" height="300" rx="24" fill="#e46a3a"/>
  <rect x="245" y="135" width="310" height="230" rx="16" fill="#ffffff"/>
  <path d="M345 170c10-25 34-44 66-44 42 0 66 24 75 52-11 2-24 5-36 9-18 6-34 16-48 32-13 15-23 32-28 50-6-14-11-28-18-40-12-24-22-38-31-50-5-8-9-11-15-9Z" fill="#2f3136"/>
  <path d="M485 170c9 0 17 2 24 6 17 11 18 31 9 48-8 15-25 27-41 34-10 4-18 7-25 10-10-31-20-55-28-73 12-15 29-25 61-25Z" fill="#5baeB3"/>
  <text x="400" y="420" text-anchor="middle" font-family="Arial, Helvetica, sans-serif" font-size="42" font-weight="700" fill="#2f3136">MERCH DROP</text>
</svg>
